# Made in Blockbench 5.0.7
mtllib modelsteelprojectile.mtl

o cone
v 0 0 0
v 0 1.3877787807814457e-16 -0.625
v 0.030461221521834964 0.09374999999999999 2.0816681711721682e-17
v 0.07974851328300374 0.05794068644530264 1.2865416830832341e-17
v 0.09857458352233756 6.035952409395705e-18 1.3402506680905602e-33
v 0.07974851328300374 -0.05794068644530263 -1.286541683083234e-17
v 0.030461221521834978 -0.09374999999999999 -2.0816681711721682e-17
v -0.030461221521835 -0.09374999999999999 -2.0816681711721682e-17
v -0.07974851328300372 -0.05794068644530265 -1.2865416830832343e-17
v -0.09857458352233756 -1.8107857228187116e-17 -4.020752004271681e-33
v -0.07974851328300375 0.05794068644530262 1.2865416830832337e-17
v -0.030461221521834992 0.09374999999999999 2.0816681711721682e-17
vt 0.024644396756745866 0.9855153407892262
vt 0.019937622675193032 1
vt 0 0.9855153407892262
vt 0 0.8420015625
vt 0.015231250000000002 0.8420015625
vt 0.007615625 1
vt 0.02464375 0.9855140625
vt 0.0199375 1
vt 0 0.9855140625
vt 0 0.8420015625
vt 0.015231250000000002 0.8420015625
vt 0.007615625 1
vt 0.0199375 0.9855140625
vt 0.02464375 1
vt 0 1
vt 0 0.8420015625
vt 0.015231250000000002 0.8420015625
vt 0.007615625 1
vt 0 0.9753562553496709
vt 0.014485042494213445 0.9800618497486668
vt 1.1275702593849246e-17 1
vt 0 0.8420015625
vt 0.015231250000000002 0.8420015625
vt 0.007615625 1
vt 0 0.9765625
vt 0.015231250000000002 0.9765625
vt 0.007615625 1
vt 0 0.8420015625
vt 0.015231250000000002 0.8420015625
vt 0.007615625 1
vt 0 1
vt 0.004706774081552834 0.9855153407892262
vt 0.024644396756745866 1
vt 0 0.8420015625
vt 0.015231250000000002 0.8420015625
vt 0.007615625 1
vt 0 1
vt 0.004706249999999999 0.9855140625
vt 0.02464375 1
vt 0 0.8420015625
vt 0.015231250000000002 0.8420015625
vt 0.007615625 1
vt 0.004706249999999999 1
vt 0 0.9855140625
vt 0.02464375 0.9855140625
vt 0 0.8420015625
vt 0.015231250000000002 0.8420015625
vt 0.007615625 1
vt 0.014485042494213445 1
vt 0 0.995294405601004
vt 0.014485042494213445 0.9753562553496709
vt 0 0.8420015625
vt 0.015231250000000002 0.8420015625
vt 0.007615625 1
vt 0.015231250000000002 1
vt 0 1
vt 0.007615625 0.9765625
vt 0 0.8420015625
vt 0.015231250000000002 0.8420015625
vt 0.007615625 1
vn 0 -2.220446049250313e-16 1
vn 0.5812822036718903 0.8000663158256326 -0.14834045293024445
vn 0 -2.220446049250313e-16 1
vn 0.9405343625965578 0.30559813939148395 -0.14834045293024456
vn 0 -2.220446049250313e-16 1
vn 0.9405343625965578 -0.30559813939148384 -0.1483404529302447
vn 0 -2.220446049250313e-16 1
vn 0.5812822036718905 -0.8000663158256325 -0.14834045293024478
vn 0 -2.220446049250313e-16 1
vn 0 -0.9889363528682975 -0.1483404529302448
vn 0 -2.220446049250313e-16 1
vn -0.5812822036718908 -0.8000663158256325 -0.14834045293024478
vn 0 -2.220446049250313e-16 1
vn -0.9405343625965578 -0.3055981393914841 -0.1483404529302447
vn 0 -2.220446049250313e-16 1
vn -0.940534362596558 0.3055981393914838 -0.14834045293024462
vn 0 -2.220446049250313e-16 1
vn -0.5812822036718908 0.8000663158256325 -0.14834045293024448
vn 0 -2.220446049250313e-16 1
vn 0 0.9889363528682977 -0.1483404529302444
usemtl m_428076cc-c7c1-169b-0e8d-c4d0f6ad484f
f 4/1/1 3/2/1 1/3/1
f 3/4/2 4/5/2 2/6/2
f 5/7/3 4/8/3 1/9/3
f 4/10/4 5/11/4 2/12/4
f 6/13/5 5/14/5 1/15/5
f 5/16/6 6/17/6 2/18/6
f 7/19/7 6/20/7 1/21/7
f 6/22/8 7/23/8 2/24/8
f 8/25/9 7/26/9 1/27/9
f 7/28/10 8/29/10 2/30/10
f 9/31/11 8/32/11 1/33/11
f 8/34/12 9/35/12 2/36/12
f 10/37/13 9/38/13 1/39/13
f 9/40/14 10/41/14 2/42/14
f 11/43/15 10/44/15 1/45/15
f 10/46/16 11/47/16 2/48/16
f 12/49/17 11/50/17 1/51/17
f 11/52/18 12/53/18 2/54/18
f 3/55/19 12/56/19 1/57/19
f 12/58/20 3/59/20 2/60/20